<?xml version="1.0" encoding="utf-8"?>
<svg viewBox="40.36 89.018 270.7692 46.177" width="270.7692" height="46.177" xmlns="http://www.w3.org/2000/svg">
    <g transform="matrix(1, 0, 0, 1, 100.15924835205067, 95.13011169433594)">
        <g transform="scale(1)">
            <path d="M22.6-27.89L9.96-27.89 9.96-19.55 21.17-19.55 21.17-14.25 9.96-14.25 9.96-5.43 22.6-5.43 22.6 0 3.29 0 3.29-33.32 22.6-33.32 22.6-27.89ZM24.93-13.21Q24.93-17.31 26.6-20.38 28.27-23.45 31.23-25.15 34.18-26.84 38-26.84L38-26.84Q42.91-26.84 46.13-24.38 49.34-21.93 50.44-17.5L50.44-17.5 43.24-17.5Q42.67-19.21 41.31-20.19 39.95-21.17 37.95-21.17L37.95-21.17Q35.09-21.17 33.42-19.09 31.75-17.02 31.75-13.21L31.75-13.21Q31.75-9.44 33.42-7.37 35.09-5.29 37.95-5.29L37.95-5.29Q42-5.29 43.24-8.91L43.24-8.91 50.44-8.91Q49.34-4.62 46.1-2.1 42.86 0.43 38 0.43L38 0.43Q34.18 0.43 31.23-1.26 28.27-2.96 26.6-6.03 24.93-9.11 24.93-13.21L24.93-13.21ZM65.08 0.43Q61.26 0.43 58.21-1.26 55.16-2.96 53.42-6.05 51.68-9.15 51.68-13.21L51.68-13.21Q51.68-17.26 53.47-20.36 55.26-23.45 58.36-25.15 61.45-26.84 65.27-26.84L65.27-26.84Q69.08-26.84 72.18-25.15 75.28-23.45 77.07-20.36 78.85-17.26 78.85-13.21L78.85-13.21Q78.85-9.15 77.02-6.05 75.18-2.96 72.06-1.26 68.94 0.43 65.08 0.43L65.08 0.43ZM65.08-5.39Q66.89-5.39 68.49-6.27 70.08-7.15 71.04-8.91 71.99-10.68 71.99-13.21L71.99-13.21Q71.99-16.97 70.01-19 68.03-21.02 65.17-21.02L65.17-21.02Q62.31-21.02 60.38-19 58.45-16.97 58.45-13.21L58.45-13.21Q58.45-9.44 60.33-7.41 62.22-5.39 65.08-5.39L65.08-5.39ZM93.25 0.33Q89.77 0.33 86.99-0.86 84.2-2.05 82.58-4.29 80.95-6.53 80.91-9.58L80.91-9.58 88.06-9.58Q88.2-7.53 89.51-6.34 90.82-5.15 93.11-5.15L93.11-5.15Q95.45-5.15 96.78-6.27 98.12-7.39 98.12-9.2L98.12-9.2Q98.12-10.68 97.21-11.63 96.31-12.59 94.95-13.13 93.59-13.68 91.2-14.35L91.2-14.35Q87.96-15.3 85.94-16.23 83.91-17.16 82.46-19.05 81-20.93 81-24.07L81-24.07Q81-27.03 82.48-29.22 83.96-31.42 86.63-32.58 89.3-33.75 92.73-33.75L92.73-33.75Q97.88-33.75 101.1-31.25 104.31-28.75 104.65-24.27L104.65-24.27 97.31-24.27Q97.21-25.98 95.85-27.1 94.49-28.22 92.25-28.22L92.25-28.22Q90.3-28.22 89.13-27.22 87.96-26.22 87.96-24.31L87.96-24.31Q87.96-22.98 88.84-22.1 89.73-21.21 91.04-20.67 92.35-20.12 94.73-19.4L94.73-19.4Q97.97-18.45 100.02-17.5 102.07-16.54 103.55-14.64 105.03-12.73 105.03-9.63L105.03-9.63Q105.03-6.96 103.65-4.67 102.26-2.38 99.59-1.02 96.92 0.33 93.25 0.33L93.25 0.33ZM133.35-13.78Q133.35-12.35 133.16-11.2L133.16-11.2 113.85-11.2Q114.09-8.34 115.85-6.72 117.62-5.1 120.19-5.1L120.19-5.1Q123.91-5.1 125.48-8.3L125.48-8.3 132.68-8.3Q131.54-4.48 128.3-2.03 125.05 0.43 120.33 0.43L120.33 0.43Q116.52 0.43 113.49-1.26 110.47-2.96 108.77-6.05 107.08-9.15 107.08-13.21L107.08-13.21Q107.08-17.31 108.75-20.4 110.42-23.5 113.42-25.17 116.43-26.84 120.33-26.84L120.33-26.84Q124.1-26.84 127.08-25.22 130.06-23.6 131.7-20.62 133.35-17.64 133.35-13.78L133.35-13.78ZM113.9-15.68L126.44-15.68Q126.39-18.26 124.58-19.81 122.77-21.36 120.14-21.36L120.14-21.36Q117.66-21.36 115.97-19.86 114.28-18.35 113.9-15.68L113.9-15.68ZM150.85-26.79Q155.57-26.79 158.47-23.81 161.38-20.83 161.38-15.49L161.38-15.49 161.38 0 154.71 0 154.71-14.59Q154.71-17.73 153.14-19.43 151.56-21.12 148.84-21.12L148.84-21.12Q146.08-21.12 144.48-19.43 142.89-17.73 142.89-14.59L142.89-14.59 142.89 0 136.21 0 136.21-26.41 142.89-26.41 142.89-23.12Q144.22-24.84 146.29-25.81 148.37-26.79 150.85-26.79L150.85-26.79ZM175.83 0.43Q172.59 0.43 170.01-0.74 167.44-1.91 165.94-3.91 164.44-5.91 164.29-8.34L164.29-8.34 171.01-8.34Q171.21-6.82 172.52-5.82 173.83-4.81 175.78-4.81L175.78-4.81Q177.69-4.81 178.76-5.58 179.83-6.34 179.83-7.53L179.83-7.53Q179.83-8.82 178.52-9.46 177.21-10.11 174.35-10.87L174.35-10.87Q171.4-11.58 169.51-12.35 167.63-13.11 166.27-14.68 164.91-16.26 164.91-18.93L164.91-18.93Q164.91-21.12 166.18-22.93 167.44-24.74 169.8-25.79 172.16-26.84 175.35-26.84L175.35-26.84Q180.07-26.84 182.89-24.48 185.7-22.12 185.98-18.12L185.98-18.12 179.6-18.12Q179.45-19.69 178.28-20.62 177.12-21.55 175.16-21.55L175.16-21.55Q173.35-21.55 172.37-20.88 171.4-20.21 171.4-19.02L171.4-19.02Q171.4-17.69 172.73-17 174.07-16.3 176.88-15.59L176.88-15.59Q179.74-14.87 181.6-14.11 183.46-13.35 184.82-11.75 186.17-10.15 186.22-7.53L186.22-7.53Q186.22-5.24 184.96-3.43 183.7-1.62 181.34-0.6 178.98 0.43 175.83 0.43L175.83 0.43ZM214.26-13.78Q214.26-12.35 214.07-11.2L214.07-11.2 194.76-11.2Q195-8.34 196.76-6.72 198.52-5.1 201.1-5.1L201.1-5.1Q204.82-5.1 206.39-8.3L206.39-8.3 213.59-8.3Q212.44-4.48 209.2-2.03 205.96 0.43 201.24 0.43L201.24 0.43Q197.43 0.43 194.4-1.26 191.37-2.96 189.68-6.05 187.99-9.15 187.99-13.21L187.99-13.21Q187.99-17.31 189.66-20.4 191.33-23.5 194.33-25.17 197.33-26.84 201.24-26.84L201.24-26.84Q205.01-26.84 207.99-25.22 210.97-23.6 212.61-20.62 214.26-17.64 214.26-13.78L214.26-13.78ZM194.81-15.68L207.34-15.68Q207.3-18.26 205.48-19.81 203.67-21.36 201.05-21.36L201.05-21.36Q198.57-21.36 196.88-19.86 195.19-18.35 194.81-15.68L194.81-15.68Z" fill="#343C3E" transform="translate(-3.29, 33.75)"/>
        </g>
    </g>
    <path fill="#0BBF64" d="M 61.343 104.85 L 67.037 96.769 L 63.262 91.382 C 62.75 90.649 62.014 90.283 61.055 90.283 C 60.095 90.283 59.36 90.649 58.848 91.382 L 52.579 100.342 L 61.343 104.85 Z M 86.1 119.803 L 80.406 111.667 L 89.299 107.269 L 93.393 113.151 C 93.862 113.774 94.118 114.47 94.16 115.24 C 94.203 116.01 94.011 116.724 93.585 117.384 C 93.159 118.117 92.529 118.703 91.698 119.143 C 90.866 119.583 89.96 119.803 88.979 119.803 L 86.1 119.803 Z M 78.743 135.195 L 68.508 126.399 L 78.743 117.604 L 78.743 122.002 L 90.898 122.002 L 87.187 128.378 C 86.718 129.111 86.079 129.698 85.268 130.138 C 84.458 130.577 83.562 130.797 82.582 130.797 L 78.743 130.797 L 78.743 135.195 Z M 53.986 130.797 C 53.133 130.797 52.355 130.605 51.651 130.22 C 50.947 129.835 50.425 129.331 50.084 128.708 C 49.743 128.122 49.582 127.508 49.604 126.867 C 49.625 126.225 49.828 125.63 50.212 125.08 L 52.387 122.002 L 63.39 122.002 L 63.39 130.797 L 53.986 130.797 Z M 47.653 124.53 L 43.495 117.384 C 43.111 116.724 42.93 116.019 42.951 115.267 C 42.972 114.516 43.217 113.811 43.686 113.151 L 44.71 111.667 L 40.36 109.413 L 54.37 106.389 L 57.888 118.483 L 53.474 116.175 L 47.653 124.53 Z M 82.198 105.73 L 68.188 102.706 L 72.602 100.453 L 64.605 89.018 L 73.625 89.018 C 74.521 89.018 75.364 89.211 76.152 89.595 C 76.941 89.98 77.571 90.502 78.04 91.162 L 81.366 95.945 L 85.716 93.636 L 82.198 105.73 Z" style="" transform="matrix(1, 0, 0, 1, -1.1368683772161603e-13, 0)"/>
</svg>