<?xml version="1.0" encoding="utf-8"?>
<svg viewBox="73.7346 149.4288 53.8059 46.177" width="53.8059" height="46.177" xmlns="http://www.w3.org/2000/svg">
    <g transform="matrix(1, 0, 0, 1, 190.50263977050784, 109.1437759399414)">
        <g transform="scale(1)">
            <g>
                <path d="M -89.301 51.637 L -101.941 51.637 L -101.941 59.977 L -90.731 59.977 L -90.731 65.277 L -101.941 65.277 L -101.941 74.097 L -89.301 74.097 L -89.301 79.527 L -108.611 79.527 L -108.611 46.207 L -89.301 46.207 L -89.301 51.637 Z"
                      fill="#343C3E"/>
                <path d="M -76.171 80.066 C -78.491 80.066 -80.578 79.669 -82.431 78.876 C -84.291 78.083 -85.761 76.939 -86.841 75.446 C -87.928 73.953 -88.484 72.189 -88.511 70.156 L -81.361 70.156 C -81.268 71.523 -80.784 72.603 -79.911 73.396 C -79.038 74.189 -77.838 74.586 -76.311 74.586 C -74.751 74.586 -73.528 74.213 -72.641 73.466 C -71.748 72.719 -71.301 71.743 -71.301 70.536 C -71.301 69.549 -71.604 68.739 -72.211 68.106 C -72.811 67.466 -73.564 66.966 -74.471 66.606 C -75.378 66.239 -76.628 65.833 -78.221 65.386 C -80.381 64.753 -82.134 64.126 -83.481 63.506 C -84.834 62.886 -85.994 61.946 -86.961 60.686 C -87.934 59.433 -88.421 57.759 -88.421 55.666 C -88.421 53.693 -87.928 51.976 -86.941 50.516 C -85.954 49.049 -84.571 47.929 -82.791 47.156 C -81.011 46.376 -78.978 45.986 -76.691 45.986 C -73.258 45.986 -70.468 46.819 -68.321 48.486 C -66.181 50.153 -64.998 52.479 -64.771 55.466 L -72.111 55.466 C -72.178 54.326 -72.664 53.383 -73.571 52.636 C -74.478 51.889 -75.678 51.516 -77.171 51.516 C -78.471 51.516 -79.511 51.849 -80.291 52.516 C -81.071 53.183 -81.461 54.153 -81.461 55.426 C -81.461 56.313 -81.168 57.049 -80.581 57.636 C -79.988 58.229 -79.254 58.706 -78.381 59.066 C -77.508 59.433 -76.278 59.856 -74.691 60.336 C -72.531 60.969 -70.768 61.603 -69.401 62.236 C -68.034 62.876 -66.858 63.829 -65.871 65.096 C -64.884 66.369 -64.391 68.039 -64.391 70.106 C -64.391 71.886 -64.851 73.539 -65.771 75.066 C -66.698 76.593 -68.051 77.809 -69.831 78.716 C -71.611 79.616 -73.724 80.066 -76.171 80.066 Z"
                      fill="#343C3E"/>
                <path fill="#0BBF64" d="M -95.785 56.117 L -90.091 48.036 L -93.866 42.649 C -94.378 41.916 -95.114 41.55 -96.073 41.55 C -97.033 41.55 -97.768 41.916 -98.28 42.649 L -104.549 51.609 L -95.785 56.117 Z M -71.028 71.07 L -76.722 62.934 L -67.829 58.536 L -63.735 64.418 C -63.266 65.041 -63.01 65.737 -62.968 66.507 C -62.925 67.277 -63.117 67.991 -63.543 68.651 C -63.969 69.384 -64.599 69.97 -65.43 70.41 C -66.262 70.85 -67.168 71.07 -68.149 71.07 L -71.028 71.07 Z M -78.385 86.462 L -88.62 77.666 L -78.385 68.871 L -78.385 73.269 L -66.23 73.269 L -69.941 79.645 C -70.41 80.378 -71.049 80.965 -71.86 81.405 C -72.67 81.844 -73.566 82.064 -74.546 82.064 L -78.385 82.064 L -78.385 86.462 Z M -103.142 82.064 C -103.995 82.064 -104.773 81.872 -105.477 81.487 C -106.181 81.102 -106.703 80.598 -107.044 79.975 C -107.385 79.389 -107.546 78.775 -107.524 78.134 C -107.503 77.492 -107.3 76.897 -106.916 76.347 L -104.741 73.269 L -93.738 73.269 L -93.738 82.064 L -103.142 82.064 Z M -109.475 75.797 L -113.633 68.651 C -114.017 67.991 -114.198 67.286 -114.177 66.534 C -114.156 65.783 -113.911 65.078 -113.442 64.418 L -112.418 62.934 L -116.768 60.68 L -102.758 57.656 L -99.24 69.75 L -103.654 67.442 L -109.475 75.797 Z M -74.93 56.997 L -88.94 53.973 L -84.526 51.72 L -92.523 40.285 L -83.503 40.285 C -82.607 40.285 -81.764 40.478 -80.976 40.862 C -80.187 41.247 -79.557 41.769 -79.088 42.429 L -75.762 47.212 L -71.412 44.903 L -74.93 56.997 Z" style=""/>
            </g>
        </g>
    </g>
</svg>